<svg xmlns="http://www.w3.org/2000/svg" viewBox="0 0 1000 1000" xml:space="preserve"><path d="M500 850c12.9 0 23.3-10.4 23.3-23.3v-490c0-12.9-10.4-23.3-23.3-23.3s-23.3 10.4-23.3 23.3v490c0 12.8 10.4 23.3 23.3 23.3zm-116.7 0c12.9 0 23.3-10.4 23.3-23.3l-23.3-490c0-12.9-10.4-23.3-23.3-23.3s-23.3 10.4-23.3 23.3l23.3 490c0 12.8 10.4 23.3 23.3 23.3zM920 173.3H710v-70c0-51.5-41.8-93.3-93.3-93.3H383.3c-51.5 0-93.3 41.8-93.3 93.3v70H80c-12.9 0-23.3 10.4-23.3 23.3s10.4 23.3 23.3 23.3h97.9l65.5 676.7c0 51.6 41.8 93.3 93.3 93.3h326.7c51.6 0 93.3-41.8 93.3-93.3L822.1 220H920c12.9 0 23.3-10.5 23.3-23.3 0-12.9-10.4-23.4-23.3-23.4zm-583.3-70c0-25.8 20.9-46.7 46.7-46.7h233.3c25.8 0 46.7 20.9 46.7 46.7v70H336.7v-70zM710 896.7c0 25.8-20.9 46.7-46.7 46.7H336.7c-25.8 0-46.7-20.9-46.7-46.7L224.5 220h551L710 896.7zM616.7 850c12.9 0 23.3-10.4 23.3-23.3l23.3-490c0-12.9-10.4-23.3-23.3-23.3s-23.3 10.4-23.3 23.3l-23.3 490c-.1 12.8 10.4 23.3 23.3 23.3z"/></svg>